# File created by Blade
# Date/Time:  Thu Sep 25 17:43:48 2014
# Frame Rate: 120.000 fps
#------------------------------------------------------
:FULLY-SPECIFIED
:DEGREES
442
root -20.035044 32.924517 -6.334326 -352.484526 15.507834 -1.186226
Spine 2.493572 7.779304 -0.562115
Head 18.866372 15.457459 10.507327
LeftShoulder -17.337160 18.445310 26.828656
LeftArm 24.535787 -22.757755 -24.830448
LeftForeArm 8.158450 -0.000000 14.011282
LeftHand -30.265855 -0.000000 3.351125
LeftHandThumb1 -26.253704 0.000000 33.147579
RightShoulder -18.799584 12.382986 -38.691942
RightArm -11.480211 6.349676 35.050619
RightForeArm -27.832729 0.000000 19.019679
RightHand -15.825574 -0.000000 1.886212
RightHandThumb1 -24.326973 -0.000000 -32.862282
LeftUpLeg -5.766781 -9.750103 0.582846
LeftLeg -2.118142 -0.000000 0.000000
LeftFoot -13.634551 12.222361 335.237939
LeftToeBase 6.602066 -0.000000 -0.000000
RightUpLeg -7.268031 -12.267499 3.489613
RightLeg 4.957333 -0.000000 -0.000000
RightFoot -9.660075 -5.080271 -5.349190
RightToeBase 2.606292 -0.000000 -0.000000
443
root -20.034082 32.923250 -6.338784 -352.404698 15.408731 -1.194654
Spine 2.512684 7.779747 -0.600148
Head 18.963429 15.426216 10.571720
LeftShoulder -17.331071 18.367367 26.927237
LeftArm 24.615946 -23.090287 -25.265646
LeftForeArm 8.442906 -0.000000 14.150808
LeftHand -30.211106 -0.000000 3.450010
LeftHandThumb1 -26.253704 0.000000 33.147579
RightShoulder -18.754028 12.447695 -38.672697
RightArm -11.516343 6.357393 35.058955
RightForeArm -27.862811 -0.000000 19.077252
RightHand -15.784884 -0.000000 1.816115
RightHandThumb1 -24.326973 -0.000000 -32.862282
LeftUpLeg -5.847852 -9.584837 0.577022
LeftLeg -2.118301 -0.000000 0.000000
LeftFoot -13.611839 12.183895 335.261750
LeftToeBase 6.559607 -0.000000 -0.000000
RightUpLeg -7.381444 -12.360982 3.522989
RightLeg 4.962957 -0.000000 -0.000000
RightFoot -9.627334 -4.869720 -5.356407
RightToeBase 2.576181 -0.000000 -0.000000
444
root -20.032694 32.922963 -6.345844 -352.278004 15.325398 -1.192455
Spine 2.465833 7.760393 -0.642237
Head 19.046786 15.343260 10.567318
LeftShoulder -17.287443 18.118424 27.006196
LeftArm 24.452645 -22.757856 -25.204473
LeftForeArm 8.372214 -0.000000 14.210134
LeftHand -30.182667 -0.000000 3.474145
LeftHandThumb1 -26.253704 0.000000 33.147579
RightShoulder -18.754329 12.455595 -38.676529
RightArm -11.462497 6.375693 35.108801
RightForeArm -27.930624 -0.000000 19.123818
RightHand -15.727885 -0.000000 1.794360
RightHandThumb1 -24.326973 -0.000000 -32.862282
LeftUpLeg -5.984773 -9.400942 0.563047
LeftLeg -2.098567 -0.000000 0.000000
LeftFoot -13.589720 12.122914 335.303896
LeftToeBase 6.553248 -0.000000 -0.000000
RightUpLeg -7.528657 -12.433835 3.552271
RightLeg 4.958616 -0.000000 -0.000000
RightFoot -9.612655 -4.736489 -5.369538
RightToeBase 2.620360 -0.000000 -0.000000
445
root -20.032847 32.922859 -6.349618 -352.169029 15.228413 -1.195180
Spine 2.445343 7.752895 -0.684243
Head 19.107255 15.323677 10.590532
LeftShoulder -17.342968 18.060433 27.023202
LeftArm 24.620745 -22.950379 -25.490570
LeftForeArm 8.515899 -0.000000 14.265144
LeftHand -30.032820 -0.000000 3.533969
LeftHandThumb1 -26.253704 0.000000 33.147579
RightShoulder -18.782143 12.499452 -38.677423
RightArm -11.407895 6.367418 35.153257
RightForeArm -28.035521 -0.000000 19.182329
RightHand -15.662644 -0.000000 1.735339
RightHandThumb1 -24.326973 -0.000000 -32.862282
LeftUpLeg -6.091874 -9.195032 0.551541
LeftLeg -2.090672 -0.000000 0.000000
LeftFoot -13.564962 12.048173 335.358802
LeftToeBase 6.582586 -0.000000 -0.000000
RightUpLeg -7.640662 -12.530140 3.588372
RightLeg 4.922321 -0.000000 -0.000000
RightFoot -9.586780 -4.570254 -5.351813
RightToeBase 2.627648 -0.000000 -0.000000
446
root -20.030195 32.921473 -6.351847 -352.049720 15.132193 -1.179770
Spine 2.406100 7.749625 -0.734879
Head 19.152730 15.316105 10.585912
LeftShoulder -17.360881 17.980582 27.019437
LeftArm 24.697025 -22.913428 -25.555911
LeftForeArm 8.650892 -0.000000 14.205881
LeftHand -29.883627 -0.000000 3.561257
LeftHandThumb1 -26.253704 0.000000 33.147579
RightShoulder -18.806161 12.491513 -38.707566
RightArm -11.323598 6.324906 35.243566
RightForeArm -28.070121 -0.000000 19.215150
RightHand -15.723758 -0.000000 1.654908
RightHandThumb1 -24.326973 -0.000000 -32.862282
LeftUpLeg -6.177223 -9.067421 0.521168
LeftLeg -2.114028 -0.000000 0.000000
LeftFoot -13.426931 12.054908 335.655946
LeftToeBase 6.174095 -0.000000 -0.000000
RightUpLeg -7.728438 -12.637721 3.610524
RightLeg 4.832142 -0.000000 -0.000000
RightFoot -9.546337 -4.442251 -5.412698
RightToeBase 2.586300 -0.000000 -0.000000
447
root -20.030000 32.921553 -6.353215 -351.930166 15.014389 -1.172031
Spine 2.342879 7.773270 -0.791912
Head 19.247181 15.249467 10.613926
LeftShoulder -17.274631 17.930616 27.025185
LeftArm 24.616224 -23.037308 -25.646577
LeftForeArm 8.823859 -0.000000 14.334845
LeftHand -29.911616 -0.000000 3.496224
LeftHandThumb1 -26.253704 0.000000 33.147579
RightShoulder -18.873178 12.455612 -38.712880
RightArm -11.157581 6.284063 35.335370
RightForeArm -28.092984 -0.000000 19.234061
RightHand -15.740413 -0.000000 1.581899
RightHandThumb1 -24.326973 -0.000000 -32.862282
LeftUpLeg -6.272819 -8.811680 0.495361
LeftLeg -2.161772 -0.000000 0.000000
LeftFoot -13.479120 11.964923 335.437016
LeftToeBase 6.506386 -0.000000 -0.000000
RightUpLeg -7.834894 -12.697845 3.637516
RightLeg 4.782264 -0.000000 -0.000000
RightFoot -9.534397 -4.312514 -5.444044
RightToeBase 2.683041 -0.000000 -0.000000
448
root -20.030111 32.920700 -6.354482 -351.812501 14.888551 -1.165236
Spine 2.278951 7.792485 -0.862246
Head 19.329748 15.242622 10.694740
LeftShoulder -17.291245 17.891780 27.011726
LeftArm 24.654296 -22.889199 -25.585781
LeftForeArm 8.786664 -0.000000 14.331059
LeftHand -29.942241 0.000000 3.521529
LeftHandThumb1 -26.253704 0.000000 33.147579
RightShoulder -18.894717 12.480050 -38.697331
RightArm -11.058227 6.207900 35.387283
RightForeArm -28.090573 -0.000000 19.231087
RightHand -15.669612 0.000000 1.430959
RightHandThumb1 -24.326973 -0.000000 -32.862282
LeftUpLeg -6.362087 -8.623730 0.472487
LeftLeg -2.193888 -0.000000 0.000000
LeftFoot -13.464157 11.952238 335.491005
LeftToeBase 6.607263 -0.000000 -0.000000
RightUpLeg -7.949897 -12.774959 3.668734
RightLeg 4.751288 -0.000000 -0.000000
RightFoot -9.532519 -4.152137 -5.482942
RightToeBase 2.627492 -0.000000 -0.000000
449
root -20.029431 32.919623 -6.355870 -351.702254 14.762685 -1.159979
Spine 2.235949 7.777091 -0.910412
Head 19.370936 15.284368 10.702915
LeftShoulder -17.332168 17.941723 26.969959
LeftArm 24.729221 -22.927838 -25.660042
LeftForeArm 8.881547 -0.000000 14.351465
LeftHand -29.910372 -0.000000 3.638202
LeftHandThumb1 -26.253704 0.000000 33.147579
RightShoulder -18.912824 12.553532 -38.705735
RightArm -10.982766 6.152115 35.428414
RightForeArm -28.158733 -0.000000 19.286365
RightHand -15.701325 -0.000000 1.413624
RightHandThumb1 -24.326973 -0.000000 -32.862282
LeftUpLeg -6.468251 -8.430339 0.442529
LeftLeg -2.148358 -0.000000 0.000000
LeftFoot -13.309605 11.905123 335.851955
LeftToeBase 6.102173 -0.000000 -0.000000
RightUpLeg -8.047160 -12.778097 3.690091
RightLeg 4.707525 -0.000000 -0.000000
RightFoot -9.535881 -4.080351 -5.535135
RightToeBase 2.705054 -0.000000 -0.000000
450
root -20.026771 32.918781 -6.352507 -351.617058 14.652300 -1.154493
Spine 2.204103 7.755966 -0.958474
Head 19.424014 15.289550 10.748124
LeftShoulder -17.279147 17.985575 26.945662
LeftArm 24.581032 -23.004487 -25.685073
LeftForeArm 8.953214 -0.000000 14.653063
LeftHand -30.000056 -0.000000 3.548979
LeftHandThumb1 -26.253704 0.000000 33.147579
RightShoulder -18.888472 12.622043 -38.669921
RightArm -10.949670 6.052862 35.429006
RightForeArm -28.026817 -0.000000 19.322193
RightHand -15.635376 -0.000000 1.273102
RightHandThumb1 -24.326973 -0.000000 -32.862282
LeftUpLeg -6.532476 -8.299640 0.416861
LeftLeg -2.152781 -0.000000 0.000000
LeftFoot -13.297204 11.946393 335.982823
LeftToeBase 6.102020 -0.000000 -0.000000
RightUpLeg -8.099680 -12.821457 3.702488
RightLeg 4.642727 -0.000000 -0.000000
RightFoot -9.524960 -3.938978 -5.558412
RightToeBase 2.704967 -0.000000 -0.000000
451
root -20.025435 32.917046 -6.348355 -351.530694 14.541979 -1.163689
Spine 2.135315 7.756285 -0.988695
Head 19.520827 15.261054 10.819271
LeftShoulder -17.210261 18.088755 26.926959
LeftArm 24.590919 -22.967868 -25.663502
LeftForeArm 8.953885 -0.000000 14.650521
LeftHand -30.061670 -0.000000 3.594117
LeftHandThumb1 -26.253704 0.000000 33.147579
RightShoulder -18.881276 12.648987 -38.639267
RightArm -10.876982 6.029728 35.427628
RightForeArm -28.010272 -0.000000 19.361481
RightHand -15.644367 -0.000000 1.311348
RightHandThumb1 -24.326973 -0.000000 -32.862282
LeftUpLeg -6.621503 -8.148592 0.410702
LeftLeg -2.116154 -0.000000 0.000000
LeftFoot -13.307393 11.901044 336.021241
LeftToeBase 6.147296 -0.000000 -0.000000
RightUpLeg -8.169397 -12.853920 3.736876
RightLeg 4.604870 -0.000000 -0.000000
RightFoot -9.517388 -3.849574 -5.606098
RightToeBase 2.655384 -0.000000 -0.000000
452
root -20.027719 32.915211 -6.348402 -351.438204 14.445103 -1.165521
Spine 2.108384 7.771635 -1.048245
Head 19.520437 15.232760 10.923722
LeftShoulder -17.149081 18.048703 26.991472
LeftArm 24.532234 -22.760833 -25.654774
LeftForeArm 8.757201 -0.000000 14.694792
LeftHand -30.012175 -0.000000 3.983938
LeftHandThumb1 -26.253704 0.000000 33.147579
RightShoulder -18.894536 12.725132 -38.604239
RightArm -10.868798 5.968221 35.422372
RightForeArm -27.962858 0.000000 19.400390
RightHand -15.624858 0.000000 1.294618
RightHandThumb1 -24.326973 -0.000000 -32.862282
LeftUpLeg -6.733178 -8.130146 0.422518
LeftLeg -2.064569 -0.000000 0.000000
LeftFoot -13.360286 11.980068 336.066277
LeftToeBase 6.169881 -0.000000 -0.000000
RightUpLeg -8.262172 -12.823663 3.763704
RightLeg 4.596614 -0.000000 -0.000000
RightFoot -9.536459 -3.835382 -5.656054
RightToeBase 2.739900 -0.000000 -0.000000
453
root -20.024394 32.913371 -6.344188 -351.391544 14.356069 -1.171487
Spine 2.106357 7.786992 -1.038447
Head 19.576204 15.177518 10.929891
LeftShoulder -17.387434 18.009900 26.833720
LeftArm 25.026220 -22.573556 -25.601678
LeftForeArm 8.813850 -0.000000 14.400871
LeftHand -29.924178 0.000000 3.826118
LeftHandThumb1 -26.253704 0.000000 33.147579
RightShoulder -18.853017 12.736259 -38.619254
RightArm -10.901974 6.006657 35.428266
RightForeArm -27.964486 0.000000 19.476120
RightHand -15.566136 0.000000 1.311174
RightHandThumb1 -24.326973 -0.000000 -32.862282
LeftUpLeg -6.789303 -8.144169 0.428446
LeftLeg -2.037703 -0.000000 0.000000
LeftFoot -13.534247 12.094160 335.836795
LeftToeBase 6.482857 -0.000000 -0.000000
RightUpLeg -8.305571 -12.840567 3.776334
RightLeg 4.597064 -0.000000 -0.000000
RightFoot -9.539221 -3.756350 -5.669166
RightToeBase 2.685940 -0.000000 -0.000000
454
root -20.020467 32.911539 -6.342373 -351.329636 14.294198 -1.164339
Spine 2.094040 7.755637 -1.054457
Head 19.614823 15.123828 10.948197
LeftShoulder -17.408008 17.906290 26.812007
LeftArm 25.070309 -22.406060 -25.602781
LeftForeArm 8.937384 -0.000000 14.432625
LeftHand -30.243488 0.000000 4.379784
LeftHandThumb1 -26.253704 0.000000 33.147579
RightShoulder -18.875651 12.773033 -38.606330
RightArm -10.812671 5.956811 35.435265
RightForeArm -27.910844 -0.000000 19.468051
RightHand -15.527617 -0.000000 1.279511
RightHandThumb1 -24.326973 -0.000000 -32.862282
LeftUpLeg -6.912316 -8.132819 0.415673
LeftLeg -1.892892 -0.000000 0.000000
LeftFoot -13.595484 12.146809 335.921865
LeftToeBase 6.516326 -0.000000 -0.000000
RightUpLeg -8.386359 -12.857912 3.776865
RightLeg 4.651808 -0.000000 -0.000000
RightFoot -9.604590 -3.700617 -5.659900
RightToeBase 2.811936 -0.000000 -0.000000
